<svg xmlns="http://www.w3.org/2000/svg" fill="#fff" viewBox="0 0 138 138"><path d="M32.857 0C14.75 0 0 14.749 0 32.857v72.286C0 123.252 14.749 138 32.857 138h72.286C123.252 138 138 123.252 138 105.143V32.857C138 14.75 123.252 0 105.143 0zM46.02 26.427c2.064.089 3.959 1.251 5.102 3.035 1.301 2.03 3.32 5.182 5.949 9.293a12.33 12.33 0 0 1 .424 12.5l-4.813 6.848a6.56 6.56 0 0 0-.687 6.315 40.7 40.7 0 0 0 8.683 12.938 40.7 40.7 0 0 0 12.937 8.682 6.56 6.56 0 0 0 6.315-.686l6.847-4.814c3.91-2.142 8.752-1.971 12.501.424 4.111 2.629 7.262 4.648 9.293 5.949 1.784 1.143 2.946 3.038 3.035 5.102.506 11.71-8.566 16.454-11.205 16.454-1.827 0-23.79 2.496-48.56-22.275S29.565 39.46 29.565 37.632c0-2.639 4.744-11.711 16.454-11.205"/></svg>