<svg xmlns="http://www.w3.org/2000/svg" width="595" height="595" fill="none"><rect width="595" height="595" fill="#fff" rx="30"/><path fill="#4E567E" d="M301.474 439.385c-.189-.189-.379-.378-.379-.568l-.378-.378c-.189 0-.189-.189-.378-.189-.19-.189-.379-.189-.568-.378-.189 0-.378-.19-.568-.19s-.378-.189-.378-.189c-.189 0-.378 0-.568-.189h-2.2699999999999996c-.189 0-.378 0-.567.189-.19 0-.379.189-.379.189-.189 0-.378.19-.567.19-.19 0-.379.189-.568.378-.189 0-.189.189-.378.189l-.379.378-.378.379-15.325 19.108c-1.892 2.46-1.513 5.865.946 7.757.946.757 2.27 1.135 3.406 1.135 1.702 0 3.216-.756 4.351-2.081l.189-.189c5.676-7 16.271-7 21.758 0l.189.189c1.135 1.325 2.648 2.081 4.351 2.081 1.135 0 2.46-.378 3.406-1.135 2.459-1.892 2.837-5.486.946-7.757zM275.933 116.243c-7.757 0-14.19 6.054-14.568 13.811l-28.947 10.595c-1.513.568-2.649 1.892-2.649 3.595v18.351h-23.27c-1.703-6.243-7.19-10.784-14.001-10.784-7.946 0-14.568 6.433-14.568 14.568 0 7.946 6.433 14.568 14.568 14.568 6.811 0 12.298-4.541 14.001-10.784h27.054a3.795 3.795 0 0 0 3.784-3.784v-19.487l25.541-9.459c2.46 4.73 7.379 7.946 12.865 7.946 7.947 0 14.568-6.433 14.568-14.568.189-7.946-6.432-14.568-14.378-14.568"/><path fill="#9D9D9C" d="M245.283 387.168c-4.73-1.703-9.27-3.406-13.622-5.298-3.216-1.513-6.432-3.027-9.459-4.54 7.189 7.189 24.595 20.054 43.325 20.433 1.135-1.325 2.081-2.649 2.838-4.352-2.838-.567-5.676-1.135-8.514-1.892-5.108-1.324-9.838-2.649-14.568-4.351"/><path fill="#4E567E" d="M482.721 255.111c0-8.892-.568-17.784-1.892-26.298 0-.568-.189-1.135-.189-1.703-11.541-75.109-68.488-136.787-143.409-153.246-1.892-8.514-9.459-14.947-18.541-14.947a19.055 19.055 0 0 0-19.108 19.109c0 9.081 6.432 16.649 14.946 18.54v69.813c0 1.135.568 2.271 1.514 3.027.567.379 1.324.568 2.081.568.378 0 .946 0 1.324-.189l28.001-10.595c1.892 2.838 4.729 4.73 8.135 5.676v32.919c-14.19 17.406-31.784 33.109-50.515 47.109l-21.378-49.568c3.973-2.649 6.621-7 6.621-12.109 0-7.946-6.432-14.567-14.568-14.567-7.946 0-14.567 6.432-14.567 14.567 0 7.947 6.432 14.568 14.567 14.568h.757l22.325 51.65c-13.054 9.46-26.487 17.973-39.731 25.73l-63.569-19.108c-.756-.189-1.513-.189-2.27.189l-18.919 7.379c-2.649-3.595-6.811-5.865-11.73-5.865-7.946 0-14.568 6.432-14.568 14.567 0 7.947 6.433 14.568 14.568 14.568 7.946 0 14.568-6.432 14.568-14.568 0-.567-.189-1.135-.189-1.702l17.784-7 55.433 16.649c-47.298 26.487-89.677 41.811-96.677 44.271l-3.406 1.135c-3.027-2.27-6.811-3.595-10.973-3.595h-.568c-8.892-21-13.432-43.893-13.432-66.785 0-11.352 1.135-22.514 3.216-33.298h83.056c1.702 6.243 7.189 10.784 14 10.784 7.946 0 14.568-6.433 14.568-14.568 0-7.946-6.433-14.568-14.568-14.568-6.811 0-12.298 4.541-14 10.784h-81.353c15.324-62.244 64.514-112.002 128.083-126.76 3.406 5.487 9.46 9.271 16.271 9.271a19.056 19.056 0 0 0 19.109-19.108 19.056 19.056 0 0 0-19.109-19.109c-9.27 0-16.838 6.622-18.73 15.136-83.434 18.92-144.544 94.029-144.544 181.058 0 24.784 4.919 49.568 14.568 72.272-3.595 3.405-5.676 8.324-5.676 13.621 0 8.514 5.487 15.514 13.055 18.163v74.542a6.8 6.8 0 0 0 1.135 3.784l4.162 2.838 56.569 39.92v47.676a7.186 7.186 0 0 0 7.189 7.19h189.194a7.186 7.186 0 0 0 7.189-7.19v-47.676l56.758-39.92 4.162-3.027a6.8 6.8 0 0 0 1.135-3.784v-75.11c7-2.838 11.919-9.649 11.919-17.595 0-4.919-1.892-9.459-4.919-12.865 10.028-22.514 15.136-47.487 15.136-72.65M267.797 71.783a9.16 9.16 0 0 1 6.811-3.028c5.108 0 9.271 4.163 9.271 9.271s-4.163 9.27-9.271 9.27c-1.892 0-3.594-.567-5.108-1.513-2.46-1.703-4.162-4.54-4.162-7.568 0-2.648.946-4.919 2.459-6.432m41.623 6.054c0-5.108 4.162-9.27 9.27-9.27 2.649 0 4.919 1.135 6.622 2.837 1.514 1.703 2.46 3.784 2.46 6.244a9.24 9.24 0 0 1-3.974 7.567c-1.513 1.135-3.216 1.703-5.297 1.703-4.919.19-9.081-3.973-9.081-9.081m35.568 72.839c0 .568.189.946.189 1.325l-23.081 8.702V96.378c5.676-.946 10.405-4.352 13.054-9.082 20.244 4.541 39.163 12.676 56.001 23.839-.189 28-10.973 53.731-28 77.001v-23.46c6.243-1.702 10.784-7.189 10.784-14 0-7.946-6.433-14.568-14.568-14.568-7.946.19-14.379 6.622-14.379 14.568m-205.653 199.41c-2.27 0-4.351-.946-6.054-2.27-1.892-1.703-3.216-4.163-3.216-6.811 0-1.136.189-2.271.567-3.217 1.325-3.405 4.73-5.865 8.514-5.865 1.703 0 3.216.568 4.541 1.325 2.648 1.513 4.54 4.54 4.54 7.946 0 1.703-.567 3.216-1.324 4.54-1.325 2.649-4.162 4.352-7.568 4.352m321.629-3.595c-1.703 2.081-4.352 3.595-7.19 3.595-2.648 0-4.919-1.135-6.621-2.838-1.514-1.703-2.46-3.784-2.46-6.243 0-3.973 2.46-7.379 6.054-8.514.946-.378 2.081-.568 3.216-.568 4.352 0 8.136 3.217 9.082 7.379.189.567.189 1.135.189 1.892-.378 1.892-1.135 3.784-2.27 5.297m-5.676-24.595h-1.703a19.055 19.055 0 0 0-19.108 19.109 18.85 18.85 0 0 0 12.486 17.784v69.623l-59.596 42.001c-1.891 1.324-3.027 3.594-3.027 5.865v40.109c0 2.27-1.892 4.162-4.162 4.162h-22.136c-2.27 0-4.162-1.892-4.162-4.162v-14.379c0-3.784-2.648-7.189-6.432-7.568-4.352-.378-7.946 3.027-7.946 7.19v14.946c0 2.27-1.892 4.162-4.163 4.162h-27.054c-2.271 0-4.163-1.892-4.163-4.162V494.44c0-3.784-2.648-7.189-6.432-7.567-4.352-.379-7.946 3.027-7.946 7.189v22.703c0 2.27-1.892 4.162-4.163 4.162h-27.054c-2.27 0-4.162-1.892-4.162-4.162v-14.757c0-3.784-2.649-7.189-6.433-7.568-4.351-.378-7.946 3.027-7.946 7.19v14.946c0 2.27-1.892 4.162-4.162 4.162h-22.136c-2.27 0-4.162-1.892-4.162-4.162v-40.109c0-2.27-1.135-4.541-3.027-5.865l-59.407-42.001v-70.38c6.622-3.027 11.162-9.649 11.162-17.406 0-1.135-.189-2.27-.378-3.405 7.568-2.649 65.272-23.271 122.03-58.65 76.812-47.866 119.381-102.164 124.3-157.976 33.108 26.676 56.001 65.271 62.623 108.597-.946 94.785-166.112 153.246-167.815 153.814-.378.189-1.324.378-2.081.756a444 444 0 0 0-6.433-1.135c-1.513-.378-3.216-.567-4.729-.946-2.46-.378-4.919-.946-7.379-1.513-.378-.189-.946-.189-1.324-.189l-2.838-.568c-1.135-.189-2.27-.568-3.406-.757-2.648-.567-5.297-1.135-7.757-1.892-4.729-1.135-9.27-2.459-13.811-3.594-4.351-1.325-8.892-2.46-13.054-3.784h-.378c-3.217-.946-6.244-1.892-9.271-3.027-.946-.379-2.081-.757-3.027-.946-1.513-.568-2.838-.946-4.162-1.325-2.46-.756-4.73-1.513-6.811-2.459h-.189q-5.109-1.702-9.082-3.406c-2.837-1.135-5.297-2.081-7.189-2.838-1.892-.945-3.595-1.513-4.541-2.081-1.135-.567-1.702-.756-1.702-.756s.378.567 1.135 1.324c.757.946 1.892 2.27 3.594 3.784a63.5 63.5 0 0 0 6.055 5.297 195 195 0 0 0 8.324 6.054h.189c-1.135 3.784-1.892 7.947-1.892 12.109 0 21.757 17.785 39.541 39.542 39.541 16.838 0 31.217-10.595 36.893-25.541 1.891.189 3.973.378 5.865.568 3.405.189 6.621.189 9.648.189.19 0 .379.189.568.189l31.974 32.541c8.135 8.136 20.811 9.46 30.271 3.217l49.947-28.001c4.351-2.838 7.189-7.757 7.189-13.054v-57.515c19.298-15.325 36.703-33.487 48.055-54.109q-3.121 22.419-11.919 42.568m-186.923 71.515c-.757 1.514-1.892 3.027-2.838 4.352a24.92 24.92 0 0 1-37.839 0c-3.784-4.352-5.865-10.028-5.865-16.082 0-1.513.19-2.838.379-4.351 3.027 1.513 6.243 3.027 9.459 4.54 4.352 1.892 8.892 3.784 13.622 5.298 4.73 1.702 9.649 3.027 14.568 4.351 2.838.757 5.676 1.325 8.514 1.892"/></svg>