<svg role="img" viewBox="0 0 138 138" fill="white" xmlns="http://www.w3.org/2000/svg"><title>Phone</title>
<path d="M32.8571 0C14.7485 0 0 14.7485 0 32.8571V105.143C0 123.252 14.7485 138 32.8571 138H105.143C123.252 138 138 123.252 138 105.143V32.8571C138 14.7485 123.252 0 105.143 0H32.8571ZM46.0193 26.4269C48.0827 26.5156 49.9777 27.6782 51.1211 29.4623C52.4222 31.4929 54.4415 34.6443 57.07 38.7547C59.4686 42.5037 59.6359 47.3459 57.4936 51.2559L52.6805 58.1032C51.3794 59.9564 51.1199 62.3283 51.9939 64.418C53.3541 67.6708 55.9912 72.67 60.6766 77.3555C65.362 82.0409 70.3613 84.6779 73.6141 86.0382C75.7038 86.9122 78.0757 86.6527 79.9289 85.3516L86.7762 80.5385C90.6862 78.3962 95.5283 78.5668 99.2773 80.9621C103.388 83.5906 106.539 85.6099 108.57 86.911C110.354 88.0544 111.516 89.9494 111.605 92.0128C112.111 103.723 103.039 108.467 100.4 108.467C98.5735 108.467 76.6108 110.963 51.8398 86.1922C27.0688 61.4212 29.565 39.4586 29.565 37.6317C29.565 34.9933 34.309 25.9209 46.0193 26.4269Z" fill="white"/>
</svg>

