<svg width="595" height="595" viewBox="0 0 595 595" fill="none" xmlns="http://www.w3.org/2000/svg">
<rect width="595" height="595" rx="30" fill="white"/>
<path d="M301.474 439.385C301.285 439.196 301.095 439.007 301.095 438.817C300.906 438.628 300.906 438.628 300.717 438.439C300.528 438.439 300.528 438.25 300.339 438.25C300.149 438.061 299.96 438.061 299.771 437.872C299.582 437.872 299.393 437.682 299.203 437.682C299.014 437.682 298.825 437.493 298.825 437.493C298.636 437.493 298.447 437.493 298.257 437.304C298.068 437.304 297.879 437.304 297.69 437.304C297.501 437.304 297.311 437.304 297.122 437.304C296.933 437.304 296.744 437.304 296.555 437.304C296.366 437.304 296.176 437.304 295.987 437.304C295.798 437.304 295.609 437.304 295.42 437.493C295.23 437.493 295.041 437.682 295.041 437.682C294.852 437.682 294.663 437.872 294.474 437.872C294.284 437.872 294.095 438.061 293.906 438.25C293.717 438.25 293.717 438.439 293.528 438.439C293.338 438.628 293.338 438.628 293.149 438.817C292.96 439.007 292.771 439.196 292.771 439.196L277.446 458.304C275.554 460.764 275.933 464.169 278.392 466.061C279.338 466.818 280.662 467.196 281.798 467.196C283.5 467.196 285.014 466.44 286.149 465.115L286.338 464.926C292.014 457.926 302.609 457.926 308.096 464.926L308.285 465.115C309.42 466.44 310.933 467.196 312.636 467.196C313.771 467.196 315.096 466.818 316.042 466.061C318.501 464.169 318.879 460.575 316.988 458.304L301.474 439.385Z" fill="#4E567E"/>
<path d="M275.933 116.243C268.176 116.243 261.743 122.297 261.365 130.054L232.418 140.649C230.905 141.217 229.769 142.541 229.769 144.244V162.595H206.499C204.796 156.352 199.309 151.811 192.498 151.811C184.552 151.811 177.93 158.244 177.93 166.379C177.93 174.325 184.363 180.947 192.498 180.947C199.309 180.947 204.796 176.406 206.499 170.163H233.553C235.634 170.163 237.337 168.46 237.337 166.379V146.892L262.878 137.433C265.338 142.163 270.257 145.379 275.743 145.379C283.69 145.379 290.311 138.946 290.311 130.811C290.5 122.865 283.879 116.243 275.933 116.243Z" fill="#4E567E"/>
<path d="M245.283 387.168C240.553 385.465 236.013 383.762 231.661 381.87C228.445 380.357 225.229 378.843 222.202 377.33C229.391 384.519 246.797 397.384 265.527 397.763C266.662 396.438 267.608 395.114 268.365 393.411C265.527 392.844 262.689 392.276 259.851 391.519C254.743 390.195 250.013 388.87 245.283 387.168Z" fill="#9D9D9C"/>
<path d="M482.721 255.111C482.721 246.219 482.153 237.327 480.829 228.813C480.829 228.245 480.64 227.678 480.64 227.11C469.099 152.001 412.152 90.3235 337.231 73.8637C335.339 65.35 327.772 58.9175 318.69 58.9175C308.095 58.9175 299.582 67.4312 299.582 78.026C299.582 87.1073 306.014 94.675 314.528 96.5669V166.379C314.528 167.514 315.096 168.65 316.042 169.406C316.609 169.785 317.366 169.974 318.123 169.974C318.501 169.974 319.069 169.974 319.447 169.785L347.448 159.19C349.34 162.028 352.177 163.92 355.583 164.866V197.785C341.393 215.191 323.799 230.894 305.068 244.894L283.69 195.326C287.663 192.677 290.311 188.326 290.311 183.217C290.311 175.271 283.879 168.65 275.743 168.65C267.797 168.65 261.176 175.082 261.176 183.217C261.176 191.164 267.608 197.785 275.743 197.785C275.933 197.785 276.311 197.785 276.5 197.785L298.825 249.435C285.771 258.895 272.338 267.408 259.094 275.165L195.525 256.057C194.769 255.868 194.012 255.868 193.255 256.246L174.336 263.625C171.687 260.03 167.525 257.76 162.606 257.76C154.66 257.76 148.038 264.192 148.038 272.327C148.038 280.274 154.471 286.895 162.606 286.895C170.552 286.895 177.174 280.463 177.174 272.327C177.174 271.76 176.985 271.192 176.985 270.625L194.769 263.625L250.202 280.274C202.904 306.761 160.525 322.085 153.525 324.545L150.119 325.68C147.092 323.41 143.308 322.085 139.146 322.085C138.957 322.085 138.768 322.085 138.578 322.085C129.686 301.085 125.146 278.192 125.146 255.3C125.146 243.948 126.281 232.786 128.362 222.002H211.418C213.12 228.245 218.607 232.786 225.418 232.786C233.364 232.786 239.986 226.353 239.986 218.218C239.986 210.272 233.553 203.65 225.418 203.65C218.607 203.65 213.12 208.191 211.418 214.434H130.065C145.389 152.19 194.579 102.432 258.148 87.6748C261.554 93.1614 267.608 96.9453 274.419 96.9453C285.014 96.9453 293.528 88.4316 293.528 77.8368C293.528 67.242 285.014 58.7283 274.419 58.7283C265.149 58.7283 257.581 65.35 255.689 73.8637C172.255 92.7831 111.145 167.893 111.145 254.922C111.145 279.706 116.064 304.49 125.713 327.194C122.118 330.599 120.037 335.518 120.037 340.815C120.037 349.329 125.524 356.329 133.092 358.978V433.52C133.092 434.844 133.47 436.169 134.227 437.304L138.389 440.142L194.958 480.062V527.738C194.958 531.711 198.174 534.928 202.147 534.928H391.341C395.314 534.928 398.53 531.711 398.53 527.738V480.062L455.288 440.142L459.45 437.115C460.207 435.98 460.585 434.655 460.585 433.331V358.221C467.585 355.383 472.504 348.572 472.504 340.626C472.504 335.707 470.612 331.167 467.585 327.761C477.613 305.247 482.721 280.274 482.721 255.111ZM267.797 71.7826C269.5 69.8907 271.96 68.7555 274.608 68.7555C279.716 68.7555 283.879 72.9178 283.879 78.026C283.879 83.1342 279.716 87.2965 274.608 87.2965C272.716 87.2965 271.014 86.7289 269.5 85.7829C267.04 84.0802 265.338 81.2423 265.338 78.2152C265.338 75.5665 266.284 73.2962 267.797 71.7826ZM309.42 77.8368C309.42 72.7286 313.582 68.5663 318.69 68.5663C321.339 68.5663 323.609 69.7015 325.312 71.4042C326.826 73.107 327.772 75.1881 327.772 77.6476C327.772 80.6747 326.258 83.5126 323.798 85.2153C322.285 86.3505 320.582 86.9181 318.501 86.9181C313.582 87.1073 309.42 82.945 309.42 77.8368ZM344.988 150.676C344.988 151.244 345.177 151.622 345.177 152.001L322.096 160.703V96.3777C327.772 95.4318 332.501 92.0263 335.15 87.2965C355.394 91.8371 374.313 99.9724 391.151 111.135C390.962 139.135 380.178 164.866 363.151 188.136V164.676C369.394 162.974 373.935 157.487 373.935 150.676C373.935 142.73 367.502 136.108 359.367 136.108C351.421 136.298 344.988 142.73 344.988 150.676ZM139.335 350.086C137.065 350.086 134.984 349.14 133.281 347.816C131.389 346.113 130.065 343.653 130.065 341.005C130.065 339.869 130.254 338.734 130.632 337.788C131.957 334.383 135.362 331.923 139.146 331.923C140.849 331.923 142.362 332.491 143.687 333.248C146.335 334.761 148.227 337.788 148.227 341.194C148.227 342.897 147.66 344.41 146.903 345.734C145.578 348.383 142.741 350.086 139.335 350.086ZM460.964 346.491C459.261 348.572 456.612 350.086 453.774 350.086C451.126 350.086 448.855 348.951 447.153 347.248C445.639 345.545 444.693 343.464 444.693 341.005C444.693 337.032 447.153 333.626 450.747 332.491C451.693 332.113 452.828 331.923 453.963 331.923C458.315 331.923 462.099 335.14 463.045 339.302C463.234 339.869 463.234 340.437 463.234 341.194C462.856 343.086 462.099 344.978 460.964 346.491ZM455.288 321.896C454.72 321.896 454.153 321.896 453.585 321.896C442.99 321.896 434.477 330.41 434.477 341.005C434.477 349.14 439.585 356.14 446.963 358.789V428.412L387.367 470.413C385.476 471.737 384.34 474.007 384.34 476.278V516.387C384.34 518.657 382.448 520.549 380.178 520.549H358.042C355.772 520.549 353.88 518.657 353.88 516.387V502.008C353.88 498.224 351.232 494.819 347.448 494.44C343.096 494.062 339.502 497.467 339.502 501.63V516.576C339.502 518.846 337.61 520.738 335.339 520.738H308.285C306.014 520.738 304.122 518.846 304.122 516.576V494.44C304.122 490.656 301.474 487.251 297.69 486.873C293.338 486.494 289.744 489.9 289.744 494.062V516.765C289.744 519.035 287.852 520.927 285.581 520.927H258.527C256.257 520.927 254.365 519.035 254.365 516.765V502.008C254.365 498.224 251.716 494.819 247.932 494.44C243.581 494.062 239.986 497.467 239.986 501.63V516.576C239.986 518.846 238.094 520.738 235.824 520.738H213.688C211.418 520.738 209.526 518.846 209.526 516.576V476.467C209.526 474.197 208.391 471.926 206.499 470.602L147.092 428.601V358.221C153.714 355.194 158.254 348.572 158.254 340.815C158.254 339.68 158.065 338.545 157.876 337.41C165.444 334.761 223.148 314.139 279.906 278.76C356.718 230.894 399.287 176.596 404.206 120.784C437.314 147.46 460.207 186.055 466.829 229.381C465.883 324.166 300.717 382.627 299.014 383.195C298.636 383.384 297.69 383.573 296.933 383.951C294.852 383.573 292.771 383.195 290.5 382.816C288.987 382.438 287.284 382.249 285.771 381.87C283.311 381.492 280.852 380.924 278.392 380.357C278.014 380.168 277.446 380.168 277.068 380.168C276.122 379.978 275.176 379.789 274.23 379.6C273.095 379.411 271.96 379.032 270.824 378.843C268.176 378.276 265.527 377.708 263.067 376.951C258.338 375.816 253.797 374.492 249.256 373.357C244.905 372.032 240.364 370.897 236.202 369.573C236.013 369.573 236.013 369.573 235.824 369.573C232.607 368.627 229.58 367.681 226.553 366.546C225.607 366.167 224.472 365.789 223.526 365.6C222.013 365.032 220.688 364.654 219.364 364.275C216.904 363.519 214.634 362.762 212.553 361.816H212.364C208.958 360.681 205.931 359.546 203.282 358.41C200.445 357.275 197.985 356.329 196.093 355.572C194.201 354.627 192.498 354.059 191.552 353.491C190.417 352.924 189.85 352.735 189.85 352.735C189.85 352.735 190.228 353.302 190.985 354.059C191.742 355.005 192.877 356.329 194.579 357.843C196.093 359.356 198.174 361.248 200.634 363.14C203.093 365.032 205.931 367.113 208.958 369.194C208.958 369.194 208.958 369.194 209.147 369.194C208.012 372.978 207.255 377.141 207.255 381.303C207.255 403.06 225.04 420.844 246.797 420.844C263.635 420.844 278.014 410.249 283.69 395.303C285.581 395.492 287.663 395.681 289.555 395.871C292.96 396.06 296.176 396.06 299.203 396.06C299.393 396.06 299.582 396.249 299.771 396.249L331.745 428.79C339.88 436.926 352.556 438.25 362.016 432.007L411.963 404.006C416.314 401.168 419.152 396.249 419.152 390.952V333.437C438.45 318.112 455.855 299.95 467.207 279.328C465.126 294.274 461.153 308.463 455.288 321.896ZM268.365 393.411C267.608 394.925 266.473 396.438 265.527 397.763C260.986 403.06 254.175 406.465 246.608 406.465C239.04 406.465 232.229 403.06 227.688 397.763C223.904 393.411 221.823 387.735 221.823 381.681C221.823 380.168 222.013 378.843 222.202 377.33C225.229 378.843 228.445 380.357 231.661 381.87C236.013 383.762 240.553 385.654 245.283 387.168C250.013 388.87 254.932 390.195 259.851 391.519C262.689 392.276 265.527 392.844 268.365 393.411Z" fill="#4E567E"/>
</svg>
